# xmcd
#
# Track frame offsets:
#	150
#	18352
#	36666
#	53814
#	70068
#	87706
#	105538
#	122373
#	140405
#	155092
#	170726
#	195376
#
# Disc length: 3054 seconds
#
# Revision: 3
# Processed by: cddbd v1.5.2PL0 Copyright (c) Steve Scherf et al.
# Submitted via: audiograbber 1.83.01
#
DISCID=a60bec0c
DTITLE=Jewel - Perfectly Clear
DYEAR=2008
DGENRE=Country
TTITLE0=Stronger Woman
TTITLE1=I Do
TTITLE2=Love Is a Garden
TTITLE3=Rosey and Mick
TTITLE4=Anyone But You
TTITLE5=Thump, Thump
TTITLE6=Two Become One
TTITLE7=Till It Feels Like Cheating
TTITLE8=Everything Reminds Me of You
TTITLE9=Loved By You 
TTITLE10=Perfectly Clear
TTITLE11=Data track
EXTD=
EXTT0=
EXTT1=
EXTT2=
EXTT3=
EXTT4=
EXTT5=
EXTT6=
EXTT7=
EXTT8=
EXTT9=
EXTT10=
EXTT11=
PLAYORDER=
